# xmcd
#
# Track frame offsets:
#	150
#	11692
#	29112
#	42522
#	57532
#	70247
#	84407
#	96905
#	111747
#	129932
#
# Disc length: 1919 seconds
#
# Revision: 3
# Processed by: cddbd v1.4PL0 Copyright (c) Steve Scherf et al.
# Submitted via: CDmax 1.9
#
DISCID=91077d0a
DTITLE=Martina McBride - The Time Has Come
DYEAR=1992
DGENRE=Country
TTITLE0=The Time Has Come
TTITLE1=That's Me
TTITLE2=True Blue Fool
TTITLE3=Losing You Feels Good
TTITLE4=Walk That Line
TTITLE5=Cheap Whiskey
TTITLE6=I Can't Sleep
TTITLE7=A Woman Knows
TTITLE8=The Rope
TTITLE9=When You Are Old
EXTD=YEAR=1992\nLABEL=BMG Special Products\nID=7551744952 2\nUPC=7 55174-49522
EXTD=9
EXTT0=
EXTT1=
EXTT2=
EXTT3=
EXTT4=
EXTT5=
EXTT6=
EXTT7=
EXTT8=
EXTT9=
PLAYORDER=
